<?xml version="1.0" standalone="no"?>
<!DOCTYPE svg PUBLIC "-//W3C//DTD SVG 20010904//EN"
 "http://www.w3.org/TR/2001/REC-SVG-20010904/DTD/svg10.dtd">
<svg version="1.0" xmlns="http://www.w3.org/2000/svg"
 width="369.000000pt" height="369.000000pt" viewBox="0 0 369.000000 369.000000"
 preserveAspectRatio="xMidYMid meet">
<metadata>
Created by potrace 1.14, written by Peter Selinger 2001-2017
</metadata>
<g transform="translate(0.000000,369.000000) scale(0.100000,-0.100000)"
fill="#000000" stroke="none">
<path d="M1989 3226 c-2 -3 -17 -7 -33 -10 -57 -10 -164 -76 -243 -149 l-31
-29 -114 55 c-148 73 -217 90 -333 84 -105 -5 -157 -25 -228 -88 -49 -42 -105
-129 -126 -192 -7 -20 -14 -37 -16 -37 -1 0 -22 7 -46 15 -73 26 -178 30 -243
10 -117 -37 -199 -148 -223 -301 -4 -24 -14 -37 -41 -50 -62 -33 -176 -111
-211 -145 -124 -124 -119 -264 13 -386 l53 -49 -35 -44 c-85 -110 -116 -231
-76 -299 31 -53 139 -95 242 -94 32 0 32 0 33 -51 2 -167 35 -280 99 -334 54
-46 150 -56 243 -24 l58 19 -7 -56 c-28 -228 25 -331 171 -331 77 0 237 62
349 135 23 15 23 15 45 -67 42 -152 110 -261 192 -304 47 -24 142 -23 202 4
61 27 130 75 192 133 l51 48 36 -34 c138 -131 268 -197 375 -191 130 6 230
100 294 277 17 47 25 59 38 53 332 -140 522 -56 524 231 0 50 -3 102 -6 117
-7 25 -3 29 67 62 80 38 153 101 180 154 49 95 9 230 -103 353 l-29 31 54 55
c68 70 106 146 106 211 0 52 -26 114 -61 146 -30 27 -26 37 12 24 119 -38 186
-97 216 -191 10 -30 17 -38 34 -35 18 2 21 9 19 32 -9 85 -84 176 -179 218
-52 23 -65 26 -167 38 -43 5 -81 11 -83 14 -2 2 6 35 18 72 30 92 31 201 2
264 -41 89 -117 140 -253 170 l-74 16 -12 48 c-18 70 -58 146 -100 189 -57 59
-114 81 -215 84 -75 2 -97 -2 -185 -32 -54 -19 -100 -35 -100 -35 -1 0 -13 17
-26 38 -66 98 -152 152 -254 158 -33 3 -62 2 -65 0z"/>
</g>
</svg>
