<?xml version="1.0" encoding="utf-8"?>
<!-- Generator: Adobe Illustrator 24.0.2, SVG Export Plug-In . SVG Version: 6.00 Build 0)  -->
<svg version="1.1" id="Layer_1" xmlns="http://www.w3.org/2000/svg" xmlns:xlink="http://www.w3.org/1999/xlink" x="0px" y="0px"
	 viewBox="0 0 365.9 292.6" style="enable-background:new 0 0 365.9 292.6;" xml:space="preserve">
<style type="text/css">
	.st0{fill:#6542BF;}
	.st1{fill:#869BF8;}
	.st2{fill:#FFB066;}
</style>
<g>
	<g>
		<path class="st0" d="M359.8,42c-2,1-3.9,2.1-5.7,3.2c-1.6,1-3.2,2-4.7,3c0.3-2,0.6-4.1,0.8-6.1c0.2-2.3,0.4-4.5,0.5-6.8
			c0.1-2.3,0.1-4.6-0.1-6.9c-1.1,2.1-2,4.2-2.8,6.3c-0.8,2.1-1.6,4.3-2.2,6.5c-0.7,2.1-1.2,4.2-1.8,6.3c-1.3-2.2-2.5-4.4-3.9-6.5
			c-1.3-2.1-2.6-4.2-3.9-6.3c-1.3-2.1-2.7-4.2-4.1-6.2c0.8,2.4,1.6,4.7,2.5,7c0.9,2.3,1.8,4.6,2.7,6.9c1.6,4,3.3,8,5.1,12
			c-0.1,0.5,0,1.1,0.1,1.6c-0.7,2.7-1.4,5.3-2,8c-0.8,3.1-1.9,6.2-2.7,9.3c-0.2,0.8-0.5,1.5-0.8,2.3l-0.8,2.3
			c-0.6,1.5-1.1,3-1.7,4.5c-0.7,1.4-1.3,2.9-1.9,4.4l-1,2.2l-1.1,2.1c-2.9,5.7-6.5,11-10.9,15.5c-0.5,0.6-1.1,1.1-1.7,1.6l-1.8,1.6
			l-1.9,1.4l-1,0.7c-0.3,0.2-0.7,0.4-1,0.6c-2.7,1.7-5.6,3.2-8.8,4c3.3,0.1,6.7-0.7,9.9-2c0.4-0.2,0.8-0.3,1.2-0.5l1.1-0.6
			c0.8-0.4,1.5-0.8,2.3-1.2l2.1-1.4c0.7-0.5,1.5-0.9,2.1-1.5c5.4-4.3,9.8-9.7,13.2-15.6l1.3-2.2l1.1-2.3c0.7-1.5,1.5-3.1,2.2-4.6
			c1.2-3.2,2.4-6.3,3.5-9.5l1.3-4.9c0.4-1.6,0.9-3.2,1.2-4.9c0.5-2.7,1-5.5,1.5-8.2c3.3-2.5,6.6-5.2,9.6-8.1c1.6-1.5,3.2-3,4.7-4.6
			c1.5-1.6,3-3.3,4.3-5.1C363.8,40,361.8,41,359.8,42z"/>
		<path class="st0" d="M53.8,112.5c-0.3-0.2-0.7-0.4-1-0.6l-1-0.7l-1.9-1.4l-1.8-1.6c-0.6-0.5-1.2-1-1.7-1.6
			c-4.4-4.6-8-9.8-10.9-15.5l-1.1-2.1l-1-2.2c-0.6-1.5-1.3-2.9-1.9-4.4c-0.6-1.5-1.1-3-1.7-4.5l-0.8-2.3c-0.3-0.8-0.6-1.5-0.8-2.3
			c-0.9-3.1-1.9-6.2-2.7-9.3c-0.6-2.7-1.3-5.3-2-8c0.2-0.5,0.2-1,0.1-1.6c1.8-4,3.5-8,5.1-12c0.9-2.3,1.8-4.6,2.7-6.9
			c0.9-2.3,1.7-4.7,2.5-7c-1.4,2-2.8,4.1-4.1,6.2c-1.3,2.1-2.6,4.2-3.9,6.3c-1.3,2.2-2.6,4.3-3.9,6.5c-0.5-2.1-1.1-4.2-1.8-6.3
			c-0.7-2.2-1.4-4.3-2.2-6.5c-0.8-2.1-1.7-4.3-2.8-6.3c-0.2,2.3-0.2,4.6-0.1,6.9c0.1,2.3,0.3,4.6,0.5,6.8c0.2,2.1,0.5,4.1,0.8,6.1
			c-1.6-1-3.1-2-4.7-3C9.9,44.1,8,43,6.1,42c-2-1-4-2-6.1-2.8c1.3,1.8,2.8,3.5,4.3,5.1c1.5,1.6,3.1,3.1,4.7,4.6
			c3.1,2.9,6.3,5.5,9.6,8.1c0.5,2.7,0.9,5.5,1.5,8.2c0.3,1.7,0.8,3.3,1.2,4.9l1.3,4.9c1,3.2,2.2,6.4,3.5,9.5
			c0.7,1.5,1.5,3.1,2.2,4.6l1.1,2.3l1.3,2.2c3.4,5.9,7.8,11.4,13.2,15.6c0.6,0.6,1.4,1,2.1,1.5l2.1,1.4c0.7,0.4,1.5,0.8,2.3,1.2
			l1.1,0.6c0.4,0.2,0.8,0.3,1.2,0.5c3.1,1.3,6.5,2.1,9.9,2C59.4,115.7,56.5,114.2,53.8,112.5z"/>
		<path class="st0" d="M132.8,199.5c2.8-8.5,6.1-16.9,10-25.1c-2.8,3.6-5.3,7.4-7.6,11.4c-2.3,3.9-4.4,8-6.3,12.2
			c-3.8,8.3-6.8,17.1-8.7,26.2c-1.9,9.1-2.7,18.5-2,27.8l0.3,3.5c0.2,1.2,0.4,2.3,0.5,3.5c0.2,1.2,0.4,2.3,0.7,3.5
			c0.3,1.1,0.5,2.3,0.8,3.4c0.9,3.4,2.1,6.7,3.4,9.9c-5.7,0.9-11.3,1.8-17,2.7c-3.4,0.6-6.9,1.3-10.3,1.9c-3.4,0.7-6.9,1.4-10.3,2.2
			c3.5,0,7-0.1,10.5-0.1c3.5-0.1,7-0.2,10.5-0.4c7-0.3,14-0.8,20.9-1.3c0.3,0,0.5-0.1,0.8-0.2c1.4-0.5,2.1-2.1,1.5-3.5l-0.1-0.2
			c-1.6-4.1-2.9-8.2-3.9-12.4c-0.9-4.2-1.6-8.5-1.8-12.9c-0.6-8.7,0-17.5,1.5-26.2C127.8,216.7,130,208,132.8,199.5z"/>
		<path class="st0" d="M263.8,260.7l-0.2-0.1c-3.8-2.3-7.4-4.7-10.8-7.5c-3.3-2.8-6.6-5.8-9.5-9.1c-5.9-6.6-10.8-14-15.1-21.8
			c-4.2-7.9-7.8-16.1-10.8-24.6c-3-8.5-5.6-17.2-7.6-26.2c0,4.6,0.4,9.2,1,13.8c0.6,4.6,1.4,9.1,2.5,13.6c2.1,9,5.3,17.9,9.3,26.3
			c4.1,8.4,9.3,16.4,15.7,23.4l2.4,2.6c0.8,0.8,1.7,1.6,2.6,2.4c0.8,0.8,1.8,1.6,2.7,2.3c0.9,0.8,1.8,1.5,2.8,2.2
			c2.8,2.2,5.8,4,8.9,5.8c-4,4.2-7.9,8.4-11.8,12.7c-2.4,2.6-4.7,5.3-7,7.9c-2.3,2.7-4.6,5.4-6.9,8.1c2.8-2.2,5.5-4.4,8.3-6.6
			c2.7-2.3,5.4-4.5,8.1-6.8c5.4-4.6,10.6-9.3,15.8-14c0.2-0.2,0.4-0.4,0.5-0.6C265.5,263.1,265,261.5,263.8,260.7z"/>
	</g>
	<path class="st1" d="M64.6,99.5c0,0-36.1-22.1,14-46.3c0,0,2.4-38.5,40.9-24.2c0,0,10.6-46.6,63.7-13.6c0,0,30.3-35.1,51.4,0.7
		c0,0,39.1-22.8,47.7,19.7c0,0,40.2,1,23.5,40.2c0,0,35.7,13.6,4.1,40.5c0,0,33.4,28.6-9.2,44.6c0,0,11.9,52.1-41.5,28.9
		c0,0-12.3,54.1-56.9,8.5c0,0-38.5,46-51.4-15.7c0,0-52.8,37.1-41.9-18.7c0,0-34,18.7-31.3-30C77.5,134.2,35,136.2,64.6,99.5z"/>
	<ellipse class="st0" cx="137.3" cy="87.2" rx="8" ry="12.3"/>
	<ellipse class="st0" cx="213.5" cy="87.2" rx="8" ry="12.3"/>
	<g>
		<path class="st0" d="M174.9,106.1c-14.5,0-19.2-14.1-19.7-21.6c-0.1-1.1,0.8-2.1,1.9-2.1c1.1-0.1,2,0.8,2.1,1.9l0,0
			c0,0.7,1.3,17.9,15.7,17.9c14.5,0,16.3-15.6,16.4-16.3c0.1-1.1,1.1-1.9,2.2-1.8c1.1,0.1,1.9,1.1,1.8,2.2
			C194.6,93.1,189.4,106.1,174.9,106.1z"/>
	</g>
	<path class="st2" d="M340.3,97.7c-4.9-19.9-26.4-20.3-28.1-20.3c0,0,0,0,0,0l-39.6-1.6c-6.1-18.1-23.3-31.2-43.5-31.2
		c-21.3,0-39.2,14.5-44.4,34.1c-6.6-4.2-14.4-2.2-19.3,0.4c-5.1-19.8-23.1-34.5-44.5-34.5c-25.4,0-46,20.6-46,46s20.6,46,46,46
		s46-20.6,46-46c0-2.5-0.2-4.9-0.6-7.3c3.1-1.8,11.1-5.6,17.6-0.3c-0.4,2.5-0.6,5-0.6,7.6c0,25.4,20.6,46,46,46s46-20.6,46-46
		c0-3.7-0.4-7.3-1.3-10.7l38.3,1.5l0.1,0l0.1,0c0.8,0,19.9-0.2,24.2,17.3c0.2,0.9,1,1.5,1.9,1.5c0.2,0,0.3,0,0.5-0.1
		C339.9,99.9,340.5,98.8,340.3,97.7z M120.8,130.5c-22,0-40-17.9-40-40s17.9-40,40-40c22,0,40,17.9,40,40S142.8,130.5,120.8,130.5z
		 M229,130.5c-22,0-40-17.9-40-40s17.9-40,40-40c22,0,40,17.9,40,40S251.1,130.5,229,130.5z"/>
</g>
</svg>
